<svg width="155" height="24" viewBox="0 0 155 24" fill="none" xmlns="http://www.w3.org/2000/svg">
<path d="M7.61866 12.274C8.72219 11.7223 9.74084 10.5551 9.74084 8.96342C9.74084 6.73513 7.78843 5.03738 5.26304 5.03738H0.403245C0.169805 5.03738 3.05176e-05 5.22838 3.05176e-05 5.4406V19.4894C3.05176e-05 19.7017 0.169805 19.8927 0.403245 19.8927H5.53892C8.12798 19.8927 10.1653 18.1737 10.1653 15.7968C10.1653 13.802 8.84953 12.8046 7.61866 12.3801V12.274ZM2.73764 11.2766V7.56278H5.05082C6.13313 7.56278 6.83345 8.30554 6.83345 9.36663C6.83345 10.4277 6.13313 11.2766 5.05082 11.2766H2.73764ZM2.73764 17.3885V13.611H5.34793C6.40902 13.611 7.21545 14.3962 7.21545 15.4573C7.21545 16.5608 6.40902 17.3885 5.34793 17.3885H2.73764Z" fill="#1D1D1D"/>
<path d="M13.5016 19.4894C13.5016 19.7017 13.6714 19.8927 13.9048 19.8927H22.5421C22.7755 19.8927 22.9453 19.7017 22.9453 19.4894V17.7492C22.9453 17.537 22.7755 17.346 22.5421 17.346H16.2604V13.6322H21.5022C21.7144 13.6322 21.9054 13.4624 21.9054 13.229V11.4676C21.9054 11.2554 21.7144 11.0644 21.5022 11.0644H16.2604V7.584H22.5421C22.7755 7.584 22.9453 7.393 22.9453 7.18079V5.4406C22.9453 5.22838 22.7755 5.03738 22.5421 5.03738H13.9048C13.6714 5.03738 13.5016 5.22838 13.5016 5.4406V19.4894Z" fill="#1D1D1D"/>
<path d="M26.1534 19.4894C26.1534 19.7017 26.3232 19.8927 26.5566 19.8927H35.1939C35.4274 19.8927 35.5971 19.7017 35.5971 19.4894V17.7492C35.5971 17.537 35.4274 17.346 35.1939 17.346H28.9123V13.6322H34.154C34.3663 13.6322 34.5573 13.4624 34.5573 13.229V11.4676C34.5573 11.2554 34.3663 11.0644 34.154 11.0644H28.9123V7.584H35.1939C35.4274 7.584 35.5971 7.393 35.5971 7.18079V5.4406C35.5971 5.22838 35.4274 5.03738 35.1939 5.03738H26.5566C26.3232 5.03738 26.1534 5.22838 26.1534 5.4406V19.4894Z" fill="#1D1D1D"/>
<path d="M38.8053 19.4894C38.8053 19.7017 38.975 19.8927 39.2085 19.8927H41.1609C41.3731 19.8927 41.5641 19.7017 41.5641 19.4894V14.0779H43.9197L46.7422 19.7017C46.7847 19.7865 46.8908 19.8927 47.0818 19.8927H49.3101C49.6708 19.8927 49.8194 19.5531 49.6708 19.2772L46.7634 13.8869C48.6097 13.1441 49.9043 11.5525 49.9043 9.60007C49.9043 7.07468 47.8245 5.03738 45.2779 5.03738H39.2085C38.975 5.03738 38.8053 5.22838 38.8053 5.4406V19.4894ZM41.5853 11.8071V7.584H45.0445C46.1692 7.584 47.1454 8.51776 47.1454 9.64252C47.1454 10.8309 46.1692 11.8071 45.0445 11.8071H41.5853Z" fill="#1D1D1D"/>
<path d="M56.3166 19.6168C56.3166 19.7653 56.4439 19.8927 56.5925 19.8927H56.9745C57.1867 19.8927 57.314 19.7653 57.314 19.6168V5.94992H61.3886C61.5584 5.94992 61.6645 5.82259 61.6645 5.67404V5.31327C61.6645 5.16471 61.5584 5.03738 61.3886 5.03738H52.2632C52.1147 5.03738 51.9873 5.14349 51.9873 5.31327V5.63159C51.9873 5.82259 52.051 5.94992 52.2632 5.94992H56.3166V19.6168Z" fill="#1D1D1D"/>
<path d="M62.0826 19.8927H62.6768C62.8254 19.8927 62.9315 19.7865 62.9739 19.7017L64.6717 15.7968H72.7784L74.4974 19.7017C74.5398 19.7865 74.6459 19.8927 74.7945 19.8927H75.3462C75.5797 19.8927 75.5797 19.7653 75.5372 19.638L69.0646 4.97372C69.0009 4.84639 68.8948 4.82516 68.7887 4.82516H68.725C68.6189 4.82516 68.5128 4.88883 68.4704 4.97372L61.9341 19.638C61.8704 19.8078 61.9341 19.8927 62.0826 19.8927ZM65.0537 14.9692L68.7463 6.52291H68.7887L72.4176 14.9692H65.0537Z" fill="#1D1D1D"/>
<path d="M77.4974 18.3647C77.7733 18.6193 79.4711 20.1049 81.9965 20.1049C84.437 20.1049 86.6228 18.683 86.6228 16.3274C86.6228 13.8657 84.7765 12.847 81.8691 11.8496C79.7257 11.1493 78.3463 10.3641 78.3463 8.5602C78.3463 7.35056 79.3225 5.7377 81.9328 5.7377C83.5669 5.7377 84.9887 6.69268 85.0524 6.73513C85.2646 6.86246 85.4132 6.82001 85.5193 6.62902L85.689 6.35314C85.8376 6.11969 85.6891 5.97114 85.6042 5.90748C85.6042 5.90748 84.055 4.82516 81.954 4.82516C78.6434 4.82516 77.3701 6.98979 77.3701 8.58142C77.3701 11.0219 79.0042 11.892 81.4659 12.7621C84.0338 13.6322 85.5829 14.4811 85.5829 16.3698C85.5829 18.1737 83.9489 19.2136 82.0177 19.2136C79.8743 19.2136 78.3039 17.7705 78.0916 17.5795C77.9219 17.4309 77.7733 17.4946 77.6248 17.6644L77.4338 17.919C77.264 18.1525 77.3701 18.2586 77.4974 18.3647Z" fill="#1D1D1D"/>
<path d="M92.8836 19.6168C92.8836 19.7653 93.0109 19.8927 93.1595 19.8927H93.5415C93.7537 19.8927 93.881 19.7653 93.881 19.6168V5.94992H97.9556C98.1254 5.94992 98.2315 5.82259 98.2315 5.67404V5.31327C98.2315 5.16471 98.1254 5.03738 97.9556 5.03738H88.8302C88.6817 5.03738 88.5543 5.14349 88.5543 5.31327V5.63159C88.5543 5.82259 88.618 5.94992 88.8302 5.94992H92.8836V19.6168Z" fill="#1D1D1D"/>
<path d="M101.347 19.6168C101.347 19.7653 101.474 19.8927 101.623 19.8927H102.069C102.217 19.8927 102.366 19.7865 102.366 19.6168V5.31327C102.366 5.16471 102.238 5.03738 102.09 5.03738H101.623C101.474 5.03738 101.347 5.16471 101.347 5.31327V19.6168Z" fill="#1D1D1D"/>
<path d="M107.098 19.6168C107.098 19.7653 107.226 19.8927 107.374 19.8927H107.777C107.926 19.8927 108.053 19.7653 108.053 19.6168V6.71391H108.074L118.218 19.9351C118.303 20.0624 118.409 20.1049 118.558 20.1049H118.622C118.791 20.1049 118.961 20.02 118.961 19.829V5.31327C118.961 5.16471 118.834 5.03738 118.685 5.03738H118.261C118.112 5.03738 117.985 5.16471 117.985 5.31327V18.0888C117.985 18.0888 117.985 18.0888 117.964 18.0888L107.905 4.99494C107.82 4.86761 107.714 4.82516 107.565 4.82516H107.417C107.247 4.82516 107.098 4.93127 107.098 5.10105V19.6168Z" fill="#1D1D1D"/>
<path d="M122.732 12.4862C122.732 16.7518 126.149 20.1049 130.415 20.1049C133.195 20.1049 135.126 19.0013 135.508 18.7467C135.678 18.6193 135.805 18.5132 135.805 18.1949V13.2714C135.805 13.1441 135.678 13.0168 135.529 13.0168H131.178C130.945 13.0168 130.903 13.1017 130.903 13.2714V13.6959C130.903 13.8869 130.945 13.9718 131.178 13.9718H134.807V17.9615C134.595 18.1312 132.982 19.1287 130.393 19.1287C126.701 19.1287 123.793 16.1152 123.793 12.4438C123.793 8.77242 126.701 5.75893 130.393 5.75893C132.133 5.75893 133.683 6.43802 134.871 7.54156C134.998 7.66889 135.105 7.69011 135.232 7.54156C135.338 7.43545 135.465 7.30812 135.571 7.18079C135.678 7.07468 135.656 6.9049 135.55 6.79879C134.171 5.54671 132.558 4.82516 130.415 4.82516C126.149 4.82516 122.732 8.24188 122.732 12.4862Z" fill="#1D1D1D"/>
<g>
    <path d="M148.146 13.8393C148.191 13.8393 148.238 13.8268 148.279 13.8L149.325 13.1182C149.436 13.0459 149.466 12.8991 149.393 12.7902C149.319 12.681 149.17 12.6513 149.059 12.7235L148.013 13.4051C147.902 13.4773 147.872 13.6241 147.945 13.733C147.991 13.802 148.068 13.839 148.146 13.839V13.8393Z" fill="#1D1D1D"/>
    <path d="M148.43 12.3385C148.356 12.2295 148.207 12.1995 148.096 12.272L147.582 12.6076C147.471 12.6798 147.441 12.8266 147.514 12.9358C147.56 13.0046 147.637 13.0416 147.715 13.0416C147.761 13.0416 147.807 13.029 147.848 13.0022L148.363 12.6667C148.474 12.5945 148.504 12.4477 148.43 12.3385Z" fill="#1D1D1D"/>
    <path d="M153.408 21.0466H147.232V15.9973C147.232 15.9894 147.229 15.9827 147.228 15.9751C147.226 15.9588 147.223 15.9434 147.218 15.9282C147.214 15.9137 147.208 15.9006 147.201 15.8878C147.194 15.8741 147.185 15.8621 147.176 15.8502C147.166 15.8382 147.156 15.828 147.144 15.8181C147.132 15.8085 147.12 15.8007 147.107 15.7934C147.092 15.7855 147.078 15.7794 147.062 15.7745C147.054 15.7721 147.048 15.7672 147.041 15.7657C146.698 15.6952 146.613 15.5211 146.625 14.9193C146.629 14.732 146.637 14.5418 146.645 14.3496C146.677 13.5734 146.709 12.7707 146.5 12.0131C146.359 11.5019 145.979 10.9573 145.449 10.8935C145.191 10.8614 144.981 10.9179 144.823 11.0592C144.508 11.342 144.525 11.8648 144.538 12.2848C144.542 12.385 144.545 12.4782 144.542 12.5572C144.521 13.177 144.446 14.0901 144.03 14.8558C143.865 15.1605 143.694 15.4075 143.528 15.6463C143.202 16.1167 142.894 16.5612 142.745 17.3015L142.714 17.4556C142.556 18.2578 142.427 18.7587 141.77 18.9396C141.642 18.9748 141.567 19.1056 141.603 19.2314C141.633 19.336 141.73 19.4042 141.835 19.4042C141.856 19.4042 141.878 19.4012 141.9 19.3954C142.876 19.1263 143.041 18.2866 143.187 17.5453L143.217 17.3936C143.347 16.7481 143.615 16.3613 143.926 15.9131C144.099 15.6641 144.278 15.4063 144.455 15.0786C144.918 14.2258 145.001 13.2399 145.023 12.5729C145.026 12.4849 145.023 12.3812 145.019 12.27C145.01 11.9811 144.996 11.5447 145.148 11.4087C145.166 11.3924 145.222 11.3429 145.39 11.363C145.644 11.3939 145.922 11.7262 146.035 12.1372C146.225 12.8243 146.193 13.59 146.163 14.3304C146.155 14.5258 146.147 14.7195 146.143 14.9094C146.135 15.3029 146.124 15.9373 146.75 16.1726V22.6351C146.75 22.7659 146.858 22.8719 146.991 22.8719H153.407C153.54 22.8719 153.648 22.7659 153.648 22.6351V21.2831C153.648 21.1523 153.54 21.0463 153.407 21.0463L153.408 21.0466Z" fill="#1D1D1D"/>
    <path d="M146.042 22.7531C145.127 23.0499 144.097 23.1859 143.188 23.3056C142.659 23.3755 142.159 23.4414 141.729 23.5322C141.599 23.5596 141.516 23.6854 141.544 23.813C141.569 23.924 141.668 24.0003 141.78 24.0003C141.796 24.0003 141.813 23.9985 141.83 23.995C142.242 23.9082 142.733 23.8436 143.252 23.7751C144.182 23.6525 145.235 23.5136 146.192 23.2028C146.319 23.1617 146.387 23.0281 146.346 22.904C146.304 22.7799 146.168 22.7126 146.042 22.7534V22.7531Z" fill="#1D1D1D"/>
    <path d="M154.781 19.5111C154.733 19.2821 154.603 19.0852 154.427 18.9457C154.507 18.8819 154.581 18.8091 154.639 18.7217C154.785 18.5018 154.836 18.2388 154.781 17.9816C154.733 17.7533 154.602 17.5599 154.427 17.4204C154.709 17.1955 154.86 16.83 154.781 16.4569C154.733 16.2285 154.604 16.0319 154.429 15.8927C154.71 15.6676 154.86 15.3026 154.781 14.9304C154.685 14.4763 154.273 14.1469 153.802 14.1469C153.733 14.1469 153.664 14.1539 153.596 14.1679L153.365 14.215C152.825 14.326 152.477 14.8485 152.59 15.3798C152.628 15.561 152.719 15.7206 152.841 15.849L152.723 15.8735C152.561 15.9064 152.414 15.9766 152.291 16.0765C152.246 16.0378 152.19 16.0115 152.128 16.0025L151.085 15.8534C151.065 15.8505 151.047 15.8379 151.038 15.8196L150.571 14.8902C150.518 14.7839 150.409 14.7178 150.289 14.7178C150.168 14.7178 150.06 14.7839 150.007 14.8902L149.54 15.8196C149.531 15.8379 149.513 15.8505 149.493 15.8534L148.45 16.0025C148.33 16.0194 148.233 16.1001 148.196 16.2128C148.158 16.3255 148.189 16.447 148.275 16.5297L149.03 17.2532C149.045 17.2675 149.052 17.2879 149.048 17.3079L148.87 18.3294C148.85 18.4462 148.898 18.5621 148.995 18.6317C149.093 18.7013 149.22 18.7104 149.327 18.6553L150.26 18.173C150.278 18.1634 150.3 18.1634 150.318 18.173L151.251 18.6553C151.298 18.6792 151.348 18.6912 151.398 18.6912C151.463 18.6912 151.527 18.6711 151.582 18.6317C151.68 18.5621 151.728 18.4462 151.707 18.3294L151.529 17.3079C151.526 17.2879 151.533 17.2675 151.547 17.2532L151.927 16.8891C151.93 16.9386 151.937 16.9881 151.947 17.0377C152.007 17.3196 152.189 17.5529 152.43 17.6898C152.407 17.7178 152.382 17.7434 152.361 17.774C152.215 17.9939 152.165 18.2566 152.219 18.5141C152.291 18.8546 152.541 19.1248 152.86 19.239C152.742 19.4412 152.693 19.6826 152.744 19.9281C152.841 20.3822 153.253 20.7113 153.724 20.7113C153.793 20.7113 153.862 20.7044 153.929 20.6907L154.006 20.6752C154.546 20.5643 154.893 20.0417 154.781 19.5105L154.781 19.5111ZM153.464 14.6793L153.695 14.6318C153.73 14.6248 153.766 14.6208 153.802 14.6208C154.046 14.6208 154.26 14.7917 154.31 15.0274C154.368 15.3032 154.188 15.5746 153.908 15.632L153.677 15.6792C153.399 15.7375 153.119 15.5537 153.062 15.2837C153.003 15.0079 153.184 14.7364 153.464 14.679V14.6793ZM152.419 16.9418C152.39 16.8084 152.416 16.6721 152.492 16.5579C152.568 16.4438 152.685 16.3657 152.821 16.3378L153.694 16.158C153.73 16.1508 153.765 16.147 153.801 16.147C154.045 16.147 154.259 16.3182 154.309 16.5536C154.368 16.8297 154.187 17.1009 153.907 17.1585L153.623 17.2168C153.613 17.2185 153.602 17.2179 153.592 17.22L153.357 17.2713L153.033 17.3377C152.755 17.395 152.476 17.2121 152.418 16.9413L152.419 16.9418ZM152.691 18.4185C152.662 18.2848 152.688 18.1485 152.764 18.0344C152.84 17.9202 152.957 17.8418 153.096 17.8133L153.444 17.7373L153.725 17.6796C153.75 17.6758 153.776 17.6717 153.801 17.6717C154.046 17.6717 154.259 17.8427 154.309 18.0783C154.338 18.212 154.311 18.3483 154.236 18.4625C154.159 18.5767 154.043 18.655 153.904 18.6836L153.616 18.7462C153.609 18.7474 153.603 18.7471 153.597 18.7482L153.52 18.7637C153.507 18.7663 153.496 18.7721 153.483 18.775L153.306 18.8138C153.028 18.8706 152.748 18.6877 152.691 18.4179V18.4185ZM153.908 20.2124L153.831 20.2279C153.553 20.2858 153.274 20.1023 153.216 19.8323C153.16 19.569 153.323 19.3115 153.582 19.239L153.714 19.2102C153.744 19.2052 153.773 19.2012 153.802 19.2012C154.046 19.2012 154.259 19.3721 154.309 19.6078C154.368 19.8836 154.188 20.155 153.908 20.2124Z" fill="#1D1D1D"/>
    <path d="M153.408 13.841C153.541 13.841 153.648 13.735 153.648 13.6042V11.2741C153.648 11.1434 153.541 11.0374 153.408 11.0374H146.991C146.858 11.0374 146.751 11.1434 146.751 11.2741C146.751 11.4049 146.858 11.5109 146.991 11.5109H153.167V13.6042C153.167 13.735 153.275 13.841 153.408 13.841H153.408Z" fill="#1D1D1D"/>
    <path d="M147.007 10.7112H153.403C153.533 10.7112 153.641 10.6107 153.647 10.4817C153.65 10.4083 153.71 8.70699 152.422 7.67214C152.217 6.44243 151.796 2.3467 151.704 1.43767C151.726 1.42311 151.747 1.4065 151.767 1.38728C151.906 1.25592 151.976 1.05 151.976 0.775049C151.976 0.203592 151.059 0 150.199 0C149.34 0 148.422 0.203592 148.422 0.775049C148.422 1.05 148.493 1.25592 148.632 1.38728C148.652 1.4065 148.673 1.42311 148.695 1.43767C148.602 2.34641 148.182 6.44214 147.977 7.67214C146.689 8.70699 146.749 10.4083 146.752 10.4817C146.758 10.6142 146.872 10.7173 147.007 10.7112ZM149.136 5.98165L149.445 2.2532C149.458 2.0965 149.598 1.98 149.757 1.99282C149.917 2.00563 150.035 2.14282 150.022 2.29951L149.713 6.02796C149.7 6.1768 149.574 6.28922 149.425 6.28922C149.417 6.28922 149.409 6.28922 149.401 6.28835C149.241 6.27553 149.123 6.13835 149.136 5.98165ZM148.982 7.82971L149.038 7.15485C149.051 6.99816 149.192 6.88165 149.35 6.89447C149.51 6.90728 149.628 7.04447 149.615 7.20117L149.559 7.87602C149.547 8.02485 149.42 8.13728 149.271 8.13728C149.263 8.13728 149.255 8.13728 149.247 8.13641C149.088 8.12359 148.969 7.98641 148.982 7.82971Z" fill="#1D1D1D"/>
</g>
</svg>
